<svg xmlns="http://www.w3.org/2000/svg" xmlns:xlink="http://www.w3.org/1999/xlink" width="120" height="120" viewBox="0 0 120 120">
  <defs>
    <linearGradient id="linear-gradient" x1="0.5" x2="0.5" y2="1" gradientUnits="objectBoundingBox">
      <stop offset="0" stop-color="#2dce91"/>
      <stop offset="1" stop-color="#2dcebd"/>
    </linearGradient>
  </defs>
  <g id="Grupo_1" data-name="Grupo 1" transform="translate(-683.83 -666.358)">
    <rect id="Rect치ngulo_1" data-name="Rect치ngulo 1" width="120" height="120" rx="28" transform="translate(683.83 666.358)" fill="url(#linear-gradient)"/>
    <path id="Uni칩n_2" data-name="Uni칩n 2" d="M7.162,78.121h0L57.235,52.268,2.656,33.231c.024,0,.14.028.342.071l.753.16C21.56,37.247,63.263,46.137,65.834,46.908c.062.018.122.038.183.057a6.782,6.782,0,0,1,.844.334l1.829-.944c.152-.043,15.312-4.336,18.043-6.431.392-.3.849-.691,1.359-1.163a10.624,10.624,0,0,1,.507-2.739A10.5,10.5,0,0,1,107.941,34.5c.053.1.1.211.155.317a4.591,4.591,0,0,0,.643-.058,6.876,6.876,0,0,0,3.527-1.872c2.683-2.471,5.285-4.676,5.779-5.093l.011-.01V27.8a21.148,21.148,0,0,1-3.549,5.815A11.882,11.882,0,0,1,109.33,37.2a.978.978,0,0,0-.382.322A10.508,10.508,0,0,1,90.837,46.36a25.247,25.247,0,0,0-5.809-.054c-2.663.415-7.707,3.4-11.448,5.822a29.669,29.669,0,0,0,3.575,1.419,45.518,45.518,0,0,0,5.607,1.368l.279.055c.255.05.5.1.734.147.994.2,2.395-.314,4.266-1.066h0c-.072.086-.336.407-.668.873h0a10.376,10.376,0,0,1,3.593-2.813,11.371,11.371,0,0,1,14.794,4.807,10.165,10.165,0,0,1-4.589,14.122,11.374,11.374,0,0,1-14.794-4.807,10.273,10.273,0,0,1-1.184-6.215,14.228,14.228,0,0,0-.2,1.926L67.447,55.83,7.162,78.122Zm81.3-19.013a8.016,8.016,0,0,0,15.216,4.944,7.772,7.772,0,0,0-5.29-9.606,8.453,8.453,0,0,0-2.612-.417,7.567,7.567,0,0,0-7.319,5.079ZM85.6,58.181a10.053,10.053,0,0,0-.415,1.84,12.1,12.1,0,0,1,.569-2.178,13.446,13.446,0,0,1,1.612-2.915A10.058,10.058,0,0,0,85.6,58.181ZM68,52.463a.925.925,0,1,0,.009,0ZM91.452,36.949a7.5,7.5,0,1,0,7.138-5.183,7.5,7.5,0,0,0-7.138,5.183Z" transform="translate(663.708 731.593) rotate(-45)" fill="#fff"/>
  </g>
</svg>
