<svg xmlns="http://www.w3.org/2000/svg" xmlns:xlink="http://www.w3.org/1999/xlink" width="117.194" height="117.194" viewBox="0 0 117.194 117.194">
  <defs>
    <linearGradient id="linear-gradient" x1="0.5" x2="0.5" y2="1" gradientUnits="objectBoundingBox">
      <stop offset="0" stop-color="#2dce89"/>
      <stop offset="1" stop-color="#2dcecc"/>
    </linearGradient>
  </defs>
  <g id="Grupo_1" data-name="Grupo 1" transform="translate(-980.983 70.952) rotate(-45)">
    <path id="Unión_2" data-name="Unión 2" d="M7.162,78.121v0L57.235,52.268,2.656,33.231c.024,0,.14.028.342.071l.753.16C21.56,37.247,63.263,46.137,65.834,46.908c.062.018.122.038.183.057a6.782,6.782,0,0,1,.844.334l1.829-.944c.152-.043,15.312-4.336,18.043-6.431.392-.3.849-.691,1.359-1.163a10.624,10.624,0,0,1,.507-2.739A10.5,10.5,0,0,1,107.941,34.5c.053.105.105.211.155.317a4.591,4.591,0,0,0,.643-.058,6.876,6.876,0,0,0,3.527-1.872c2.683-2.471,5.285-4.676,5.779-5.093l.011-.01s0,.008,0,.015a21.148,21.148,0,0,1-3.549,5.815,11.882,11.882,0,0,1-5.177,3.587.978.978,0,0,0-.382.322A10.508,10.508,0,0,1,90.837,46.36a25.247,25.247,0,0,0-5.809-.054c-2.663.415-7.707,3.4-11.448,5.822a29.669,29.669,0,0,0,3.575,1.419,45.518,45.518,0,0,0,5.607,1.368l.279.055c.255.05.5.1.734.147.994.2,2.395-.314,4.266-1.066l0,0c-.072.086-.336.407-.668.873h0a10.376,10.376,0,0,1,3.593-2.813,11.371,11.371,0,0,1,14.794,4.807,10.165,10.165,0,0,1-4.589,14.122,11.374,11.374,0,0,1-14.794-4.807,10.273,10.273,0,0,1-1.184-6.215,14.227,14.227,0,0,0-.2,1.926L67.447,55.83,7.162,78.122Zm81.3-19.013a8.016,8.016,0,0,0,15.216,4.944,7.772,7.772,0,0,0-5.29-9.606,8.453,8.453,0,0,0-2.612-.417A7.567,7.567,0,0,0,88.457,59.108ZM85.6,58.181a10.053,10.053,0,0,0-.415,1.84,12.1,12.1,0,0,1,.569-2.178,13.446,13.446,0,0,1,1.612-2.915A10.058,10.058,0,0,0,85.6,58.181Zm-17.6-5.718a2,2,0,1,0-2.52,1.284A2,2,0,0,0,68.009,52.464ZM91.452,36.949a7.5,7.5,0,1,0,7.138-5.183A7.509,7.509,0,0,0,91.452,36.949Z" transform="translate(683.474 673.405)" fill="url(#linear-gradient)"/>
  </g>
</svg>
