<svg xmlns="http://www.w3.org/2000/svg" xmlns:xlink="http://www.w3.org/1999/xlink" width="377.26" height="50.338" viewBox="0 0 377.26 50.338">
  <defs>
    <linearGradient id="linear-gradient" x1="0.5" x2="0.5" y2="1" gradientUnits="objectBoundingBox">
      <stop offset="0" stop-color="#2dce89"/>
      <stop offset="1" stop-color="#2dcecc"/>
    </linearGradient>
  </defs>
  <g id="Grupo_1" data-name="Grupo 1" transform="translate(-686.13 -701.189)">
    <path id="Unión_2" data-name="Unión 2" d="M7.162,78.121v0L57.235,52.268,2.656,33.231c.024,0,.14.028.342.071l.753.16C21.56,37.247,63.263,46.137,65.834,46.908c.062.018.122.038.183.057a6.782,6.782,0,0,1,.844.334l1.829-.944c.152-.043,15.312-4.336,18.043-6.431.392-.3.849-.691,1.359-1.163a10.624,10.624,0,0,1,.507-2.739A10.5,10.5,0,0,1,107.941,34.5c.053.105.105.211.155.317a4.591,4.591,0,0,0,.643-.058,6.876,6.876,0,0,0,3.527-1.872c2.683-2.471,5.285-4.676,5.779-5.093l.011-.01s0,.008,0,.015a21.148,21.148,0,0,1-3.549,5.815,11.882,11.882,0,0,1-5.177,3.587.978.978,0,0,0-.382.322A10.508,10.508,0,0,1,90.837,46.36a25.247,25.247,0,0,0-5.809-.054c-2.663.415-7.707,3.4-11.448,5.822a29.669,29.669,0,0,0,3.575,1.419,45.518,45.518,0,0,0,5.607,1.368l.279.055c.255.05.5.1.734.147.994.2,2.395-.314,4.266-1.066l0,0c-.072.086-.336.407-.668.873h0a10.376,10.376,0,0,1,3.593-2.813,11.371,11.371,0,0,1,14.794,4.807,10.165,10.165,0,0,1-4.589,14.122,11.374,11.374,0,0,1-14.794-4.807,10.273,10.273,0,0,1-1.184-6.215,14.227,14.227,0,0,0-.2,1.926L67.447,55.83,7.162,78.122Zm81.3-19.013a8.016,8.016,0,0,0,15.216,4.944,7.772,7.772,0,0,0-5.29-9.606,8.453,8.453,0,0,0-2.612-.417A7.567,7.567,0,0,0,88.457,59.108ZM85.6,58.181a10.053,10.053,0,0,0-.415,1.84,12.1,12.1,0,0,1,.569-2.178,13.446,13.446,0,0,1,1.612-2.915A10.058,10.058,0,0,0,85.6,58.181Zm-17.6-5.718a2,2,0,1,0-2.52,1.284A2,2,0,0,0,68.009,52.464ZM91.452,36.949a7.5,7.5,0,1,0,7.138-5.183A7.509,7.509,0,0,0,91.452,36.949Z" transform="translate(683.474 673.405)" fill="url(#linear-gradient)"/>
    <path id="Trazado_3" data-name="Trazado 3" d="M2.563,0V-22.406H10.5q11.937,0,11.938,10.922A11.044,11.044,0,0,1,19.18-3.125,12.013,12.013,0,0,1,10.5,0ZM7.609-18.3v14.2h2.5a6.755,6.755,0,0,0,5.148-1.969,7.47,7.47,0,0,0,1.867-5.359,6.777,6.777,0,0,0-1.852-5.039,7.059,7.059,0,0,0-5.2-1.836ZM46.7.359a5.527,5.527,0,0,1-1.57-.219,6.7,6.7,0,0,1-1.406-.594,7.937,7.937,0,0,1-1.258-.883,13.017,13.017,0,0,1-1.125-1.086,13.22,13.22,0,0,1-1.391.969,11.365,11.365,0,0,1-1.836.9A14.262,14.262,0,0,1,35.859.1a12.9,12.9,0,0,1-2.641.258,12.451,12.451,0,0,1-3.383-.437,7.8,7.8,0,0,1-2.68-1.3A6.071,6.071,0,0,1,25.4-3.531,6.623,6.623,0,0,1,24.766-6.5a5.618,5.618,0,0,1,.477-2.367,6.369,6.369,0,0,1,1.242-1.82,8.132,8.132,0,0,1,1.734-1.344,13.032,13.032,0,0,1,1.969-.937,10.345,10.345,0,0,1-.977-.867,7.054,7.054,0,0,1-.883-1.078,5.7,5.7,0,0,1-.633-1.273,4.341,4.341,0,0,1-.242-1.453,4.64,4.64,0,0,1,.5-2.187,4.649,4.649,0,0,1,1.4-1.609,6.549,6.549,0,0,1,2.148-1,10.353,10.353,0,0,1,2.75-.344,9.117,9.117,0,0,1,2.633.359,6.569,6.569,0,0,1,2.055,1,4.509,4.509,0,0,1,1.328,1.539,4.208,4.208,0,0,1,.469,1.977A4.611,4.611,0,0,1,39.7-14.9a7.392,7.392,0,0,1-2.93,2.07,11.941,11.941,0,0,1,1.438.781,11.807,11.807,0,0,1,1.344,1,12.825,12.825,0,0,1,1.281,1.273,14.994,14.994,0,0,1,1.234,1.633A10.312,10.312,0,0,0,43.9-11.57a12.926,12.926,0,0,0,.555-3.789,8.943,8.943,0,0,0-.07-1.141,5.375,5.375,0,0,0-.227-1.016h4.2a6.038,6.038,0,0,1,.25.969,6.844,6.844,0,0,1,.078,1.109,13.537,13.537,0,0,1-.32,2.953,14.776,14.776,0,0,1-.9,2.75,14.547,14.547,0,0,1-1.4,2.484,17.821,17.821,0,0,1-1.8,2.188,6.294,6.294,0,0,0,1.578,1.227,3.292,3.292,0,0,0,1.531.43,7.439,7.439,0,0,0,1.531-.164,5.4,5.4,0,0,0,1.359-.461V-.312A9.484,9.484,0,0,1,48.57.2,9.731,9.731,0,0,1,46.7.359ZM33.469-3.375a8.019,8.019,0,0,0,1.734-.18,9.216,9.216,0,0,0,1.531-.477,8.707,8.707,0,0,0,1.336-.687A11.492,11.492,0,0,0,39.2-5.531a16.092,16.092,0,0,0-1.578-2.117,13.549,13.549,0,0,0-1.547-1.484,10.842,10.842,0,0,0-1.523-1.039q-.758-.422-1.523-.766a11.288,11.288,0,0,0-1.227.7,5.186,5.186,0,0,0-1.039.891A4.136,4.136,0,0,0,30.039-8.2,3.813,3.813,0,0,0,29.766-6.7a3.367,3.367,0,0,0,.266,1.359A2.973,2.973,0,0,0,30.789-4.3a3.52,3.52,0,0,0,1.172.68A4.467,4.467,0,0,0,33.469-3.375Zm2.891-14.187a1.86,1.86,0,0,0-.172-.812,1.725,1.725,0,0,0-.469-.6,2.233,2.233,0,0,0-.672-.375,2.369,2.369,0,0,0-.8-.133,2.748,2.748,0,0,0-.945.156,2.5,2.5,0,0,0-.75.422,1.812,1.812,0,0,0-.492.633,1.838,1.838,0,0,0-.172.789,2.636,2.636,0,0,0,.547,1.609A4.262,4.262,0,0,0,33.8-14.687a7.22,7.22,0,0,0,.977-.437,3.627,3.627,0,0,0,.813-.594,2.7,2.7,0,0,0,.563-.8A2.456,2.456,0,0,0,36.359-17.562ZM53.344,0V-22.406h7.938q11.938,0,11.938,10.922a11.044,11.044,0,0,1-3.258,8.359A12.013,12.013,0,0,1,61.281,0Zm5.047-18.3v14.2h2.5a6.755,6.755,0,0,0,5.148-1.969,7.47,7.47,0,0,0,1.867-5.359,6.777,6.777,0,0,0-1.852-5.039,7.059,7.059,0,0,0-5.2-1.836ZM90.281-1.859h-.062V0H85.281V-23.687h4.938v10.094h.063a5.859,5.859,0,0,1,5.2-2.8,5.709,5.709,0,0,1,4.766,2.125,9.164,9.164,0,0,1,1.672,5.813,9.924,9.924,0,0,1-1.953,6.422A6.362,6.362,0,0,1,94.75.391,5.041,5.041,0,0,1,90.281-1.859Zm-.141-6.75v1.641a3.745,3.745,0,0,0,.891,2.563,2.9,2.9,0,0,0,2.281,1.016A3.027,3.027,0,0,0,95.93-4.7a6.3,6.3,0,0,0,.93-3.7,5.012,5.012,0,0,0-.852-3.1,2.874,2.874,0,0,0-2.43-1.117A3.139,3.139,0,0,0,91.117-11.5,4.214,4.214,0,0,0,90.141-8.609ZM118.125,0h-4.672V-2.3h-.062A5.214,5.214,0,0,1,108.625.391a4.985,4.985,0,0,1-3.664-1.32,4.731,4.731,0,0,1-1.336-3.523q0-4.656,5.516-5.375l4.344-.578q0-2.625-2.844-2.625a9.707,9.707,0,0,0-5.437,1.7v-3.719a12.233,12.233,0,0,1,2.82-.937,14.826,14.826,0,0,1,3.258-.406q6.844,0,6.844,6.828Zm-4.641-6.5V-7.578l-2.906.375q-2.406.313-2.406,2.172a1.8,1.8,0,0,0,.586,1.383,2.251,2.251,0,0,0,1.586.539,2.923,2.923,0,0,0,2.266-.961A3.471,3.471,0,0,0,113.484-6.5Zm18.984-5.047a4.283,4.283,0,0,0-2.078-.484,2.994,2.994,0,0,0-2.516,1.18,5.146,5.146,0,0,0-.906,3.211V0h-4.937V-16h4.938v2.969h.063q1.172-3.25,4.219-3.25a3.18,3.18,0,0,1,1.219.188Zm7.3,9.688H139.7V0h-4.937V-23.687H139.7v10.094h.063a5.859,5.859,0,0,1,5.2-2.8,5.709,5.709,0,0,1,4.766,2.125,9.164,9.164,0,0,1,1.672,5.813,9.924,9.924,0,0,1-1.953,6.422A6.362,6.362,0,0,1,144.234.391,5.041,5.041,0,0,1,139.766-1.859Zm-.141-6.75v1.641a3.745,3.745,0,0,0,.891,2.563A2.9,2.9,0,0,0,142.8-3.391a3.027,3.027,0,0,0,2.617-1.3,6.3,6.3,0,0,0,.93-3.7,5.012,5.012,0,0,0-.852-3.1,2.874,2.874,0,0,0-2.43-1.117A3.139,3.139,0,0,0,140.6-11.5,4.214,4.214,0,0,0,139.625-8.609Zm29.359,2.016H158.547q.25,3.484,4.391,3.484a8.572,8.572,0,0,0,4.641-1.25V-.8A12.191,12.191,0,0,1,161.813.391,8.116,8.116,0,0,1,155.8-1.758a8.117,8.117,0,0,1-2.141-5.992,8.562,8.562,0,0,1,2.313-6.312,7.7,7.7,0,0,1,5.688-2.328,6.993,6.993,0,0,1,5.414,2.078,8,8,0,0,1,1.914,5.641Zm-4.578-3.031q0-3.437-2.781-3.437a2.655,2.655,0,0,0-2.055.984,4.468,4.468,0,0,0-1.055,2.453Zm17.953-1.922a4.283,4.283,0,0,0-2.078-.484,2.994,2.994,0,0,0-2.516,1.18,5.146,5.146,0,0,0-.906,3.211V0h-4.937V-16h4.938v2.969h.063q1.172-3.25,4.219-3.25a3.18,3.18,0,0,1,1.219.188ZM183.8-.422v-4a10.512,10.512,0,0,0,2.43,1.094,8.056,8.056,0,0,0,2.289.359,4.91,4.91,0,0,0,2.07-.359,1.161,1.161,0,0,0,.758-1.094A1.012,1.012,0,0,0,191-5.2a3.2,3.2,0,0,0-.883-.547,10.019,10.019,0,0,0-1.18-.422q-.641-.187-1.234-.422a11.827,11.827,0,0,1-1.68-.773,4.855,4.855,0,0,1-1.219-.961,3.777,3.777,0,0,1-.75-1.266,5.051,5.051,0,0,1-.258-1.7,4.384,4.384,0,0,1,.586-2.312,4.786,4.786,0,0,1,1.563-1.586,7.139,7.139,0,0,1,2.234-.906,11.65,11.65,0,0,1,2.617-.289,14.522,14.522,0,0,1,2.156.164,16.093,16.093,0,0,1,2.156.477v3.813a7.791,7.791,0,0,0-2.008-.82,8.47,8.47,0,0,0-2.1-.273,4.656,4.656,0,0,0-.914.086,3.011,3.011,0,0,0-.758.25,1.392,1.392,0,0,0-.516.422.971.971,0,0,0-.187.586,1.082,1.082,0,0,0,.281.75,2.443,2.443,0,0,0,.734.539,7.249,7.249,0,0,0,1.008.406q.555.18,1.1.367a14.322,14.322,0,0,1,1.781.75,5.7,5.7,0,0,1,1.367.953,3.743,3.743,0,0,1,.875,1.281,4.554,4.554,0,0,1,.3,1.75,4.565,4.565,0,0,1-.617,2.43A4.941,4.941,0,0,1,193.82-.82,7.44,7.44,0,0,1,191.461.1a13.08,13.08,0,0,1-2.773.289A14.3,14.3,0,0,1,183.8-.422ZM214.281,0h-4.922V-9.094q0-3.516-2.562-3.516a2.623,2.623,0,0,0-2.125.984,3.8,3.8,0,0,0-.812,2.5V0h-4.937V-23.687h4.938v10.063h.063a5.61,5.61,0,0,1,4.922-2.766q5.438,0,5.438,6.563Zm11.531.391a8.6,8.6,0,0,1-6.289-2.242,8.129,8.129,0,0,1-2.289-6.086,8.129,8.129,0,0,1,2.375-6.211,8.974,8.974,0,0,1,6.422-2.242,8.5,8.5,0,0,1,6.25,2.242,7.97,7.97,0,0,1,2.266,5.93,8.46,8.46,0,0,1-2.336,6.3A8.7,8.7,0,0,1,225.813.391Zm.125-13a3.293,3.293,0,0,0-2.719,1.2A5.305,5.305,0,0,0,222.25-8q0,4.609,3.719,4.609,3.547,0,3.547-4.734Q229.516-12.609,225.938-12.609ZM242.75-1.859h-.062V7.359H237.75V-16h4.938v2.406h.063a5.8,5.8,0,0,1,5.141-2.8,5.784,5.784,0,0,1,4.8,2.133,9.081,9.081,0,0,1,1.7,5.8,9.843,9.843,0,0,1-1.977,6.422A6.445,6.445,0,0,1,247.156.391,4.982,4.982,0,0,1,242.75-1.859Zm-.141-6.562v1.281a4.073,4.073,0,0,0,.875,2.7,2.848,2.848,0,0,0,2.3,1.047A3.027,3.027,0,0,0,248.4-4.7a6.3,6.3,0,0,0,.93-3.7q0-4.219-3.281-4.219a3.081,3.081,0,0,0-2.477,1.148A4.58,4.58,0,0,0,242.609-8.422Z" transform="translate(809 740)" fill="#252b3b"/>
  </g>
</svg>
